<?xml version="1.0" encoding="UTF-8"?>
<!DOCTYPE svg PUBLIC "-//W3C//DTD SVG 1.1//EN" "http://www.w3.org/Graphics/SVG/1.1/DTD/svg11.dtd">
<!-- Creator: CorelDRAW X6 -->
<svg xmlns="http://www.w3.org/2000/svg" xml:space="preserve" width="96.721mm" height="64.5397mm" version="1.1" style="shape-rendering:geometricPrecision; text-rendering:geometricPrecision; image-rendering:optimizeQuality; fill-rule:evenodd; clip-rule:evenodd"
viewBox="0 0 9672 6454"
 xmlns:xlink="http://www.w3.org/1999/xlink">
 <defs>
  <style type="text/css">
   <![CDATA[
    .str0 {stroke:#4A4949;stroke-width:35.2798;stroke-linecap:round;stroke-linejoin:round}
    .str1 {stroke:#E4584B;stroke-width:35.2798;stroke-linecap:round;stroke-linejoin:round}
    .fil1 {fill:none}
    .fil0 {fill:#E6E6E6}
   ]]>
  </style>
 </defs>
 <g id="Layer_x0020_1">
  <metadata id="CorelCorpID_0Corel-Layer"/>
  <g id="_963457072">
   <path class="fil0" d="M261 1123l1321 0c43,0 77,-35 77,-77l0 -79 0 -34 0 -837c0,-43 -35,-77 -77,-77l-53 0 0 915 -1351 0 0 113c0,43 37,77 83,77zm887 322l-458 0 149 -195 161 0 149 195z"/>
   <g>
    <path class="fil1 str0" d="M999 1250l149 195m-564 0l149 -195m-149 195l564 0m-999 -1427l1433 0c43,0 77,35 77,77l0 951c0,43 -35,77 -77,77l-1433 0c-43,0 -77,-35 -77,-77l0 -951c0,-43 35,-77 77,-77z"/>
   </g>
   <g>
    <path class="fil1 str1" d="M230 932l1271 0m-903 -194l0 -528m0 0c123,0 264,20 264,172 0,156 -135,180 -264,180m568 -89c-19,-23 -57,-41 -87,-48 -113,-25 -187,91 -10,165 72,30 98,56 90,92 -18,84 -176,67 -231,5"/>
   </g>
  </g>
  <g>
   <path class="fil0" d="M5566 1123l1321 0c43,0 77,-35 77,-77l0 -79 0 -34 0 -837c0,-43 -35,-77 -77,-77l-53 0 0 915 -1351 0 0 113c0,43 37,77 83,77zm887 322l-458 0 149 -195 161 0 149 195z"/>
   <g>
    <path class="fil1 str0" d="M6304 1250l149 195m-564 0l149 -195m-149 195l564 0m-999 -1427l1433 0c43,0 77,35 77,77l0 951c0,43 -35,77 -77,77l-1433 0c-43,0 -77,-35 -77,-77l0 -951c0,-43 35,-77 77,-77z"/>
   </g>
   <g>
    <path class="fil1 str1" d="M5535 932l1271 0m-328 -242c-24,33 -56,52 -99,52 -41,0 -74,-14 -97,-43 -23,-29 -35,-67 -35,-115 0,-48 12,-86 37,-116 25,-30 58,-45 100,-45 36,0 67,13 94,38m-318 225c-34,38 -79,57 -135,57 -59,0 -107,-23 -143,-69 -36,-46 -54,-111 -54,-196 0,-83 19,-148 56,-194 37,-47 84,-70 140,-70 28,0 52,4 72,12 19,8 39,21 59,39m324 13l0 415 36 51"/>
   </g>
  </g>
  <g>
   <path class="fil0" d="M2913 1123l1321 0c43,0 77,-35 77,-77l0 -79 0 -34 0 -837c0,-43 -35,-77 -77,-77l-53 0 0 915 -1351 0 0 113c0,43 37,77 83,77zm887 322l-458 0 149 -195 161 0 149 195z"/>
   <g>
    <path class="fil1 str0" d="M3652 1250l149 195m-564 0l149 -195m-149 195l564 0m-999 -1427l1433 0c43,0 77,35 77,77l0 951c0,43 -35,77 -77,77l-1433 0c-43,0 -77,-35 -77,-77l0 -951c0,-43 35,-77 77,-77z"/>
   </g>
   <g>
    <path class="fil1 str1" d="M3457 206l-108 303 -81 226m189 -529l189 529m-82 -212l-216 0m420 212l0 -281m0 -105l0 23m-885 559l1271 0"/>
   </g>
  </g>
  <g>
   <path class="fil0" d="M6172 3792l0 -1102c-278,-145 -329,-140 -599,-139l0 1190c103,-11 179,-19 254,-14 93,-5 169,0 269,36l23 9c0,0 30,11 52,20z"/>
   <g>
    <path class="fil1 str0" d="M6310 2880c151,-75 265,-97 429,-90m-567 -100l0 896m0 -896c295,-154 335,-139 651,-139 17,1 35,3 54,5l0 1196c-258,-23 -358,-52 -547,21m-158 -1082c-295,-154 -335,-139 -651,-139 -17,1 -35,3 -54,5l0 1196c258,-23 358,-52 547,21m20 -892c-25,-12 -48,-23 -71,-33 -73,-30 -141,-47 -215,-54 -45,-4 -92,-5 -143,-3m429 422c-151,-75 -265,-97 -429,-90m429 422c-151,-75 -265,-97 -429,-90m704 90c151,-75 265,-97 429,-90m-429 -242c151,-75 265,-97 429,-90"/>
   </g>
   <g>
    <path class="fil1 str1" d="M6172 3755l0 186m-865 -1411l0 1411 864 0m864 -1411l0 1411 -864 0"/>
   </g>
  </g>
  <g>
   <polygon class="fil0" points="8136,803 9617,18 9617,18 9617,803 9617,903 9617,941 8136,941 "/>
   <g>
    <path class="fil1 str0" d="M8369 1081l910 0m-220 140l99 223m-334 -223l0 223m-235 -223l-99 223m-460 -1427l1587 0 0 923 -1587 0 0 -923z"/>
   </g>
   <g>
    <path class="fil1 str1" d="M8182 803l1283 0m-626 -450c32,8 50,41 42,73 -8,32 -41,50 -73,42 -32,-8 -50,-41 -42,-73 8,-32 41,-50 73,-42zm166 238c-24,24 -72,16 -106,-19 -60,-60 -36,-67 -58,16 -13,47 -50,78 -83,70 -33,-9 -49,-54 -37,-102 22,-83 40,-65 -43,-43 -47,13 -93,-4 -102,-37 -9,-33 22,-70 70,-83 85,-23 78,4 16,-58 -35,-35 -43,-82 -19,-106 24,-24 72,-16 106,19 60,60 36,67 58,-16 13,-47 50,-78 83,-70 33,9 49,54 37,102 -22,82 -40,65 43,43 47,-13 93,4 102,37 9,33 -22,70 -70,83 -85,23 -78,-4 -16,58 35,35 43,82 19,106z"/>
   </g>
  </g>
  <g>
   <path class="fil0" d="M3645 3222l58 -24 20 25c0,0 99,-48 99,-48l158 -79 25 303 68 -39 53 -336c36,-18 63,-32 86,-44l36 117c71,427 -217,823 -656,843 -354,-17 -639,-294 -668,-645 217,91 514,14 721,-73z"/>
   <g>
    <path class="fil1 str1" d="M3513 3243c-312,145 -635,114 -749,-83m888 62l-142 -183 64 -21 104 45 154 -102 -250 -173 68 -39 317 122c128,-82 135,-103 264,-94 15,1 28,10 35,22 7,12 8,27 2,41 -56,116 -78,112 -213,182l-53 336 -68 39 -25 -303 -165 83 -92 44z"/>
   </g>
   <g>
    <path class="fil1 str0" d="M3689 3451c-17,218 -70,489 -132,489m692 -844c73,439 -233,844 -692,844 -311,0 -576,-202 -669,-481m-2 -442c92,-283 358,-488 671,-488 128,0 247,34 351,93m28 995c-80,194 -220,323 -379,323 -178,0 -332,-162 -406,-397 -6,-21 -12,-42 -17,-63m288 -76c1,10 1,19 2,29 15,221 70,507 134,507m-461 -765c-20,-211 197,-646 461,-646m-123 391c23,-193 70,-391 123,-391"/>
   </g>
  </g>
  <g>
   <g>
    <polygon class="fil1 str0" points="2813,5025 4224,5025 4224,6436 4113,6436 3992,6436 2813,6436 "/>
   </g>
   <g>
    <g>
     <path class="fil1 str0" d="M3634 5372c-71,-7 -109,12 -129,51 -19,37 -23,85 -23,136l0 92 0 437"/>
    </g>
    <g>
     <line class="fil1 str0" x1="3388" y1="5651" x2="3627" y2= "5651" />
    </g>
   </g>
  </g>
  <g>
   <g>
    <polygon class="fil1 str1" points="160,5025 1571,5025 1571,6436 160,6436 "/>
   </g>
   <g>
    <polyline class="fil1 str1" points="1258,5940 870,5503 482,5940 "/>
   </g>
  </g>
  <g>
   <g>
    <polygon class="fil1 str0" points="5465,5025 6877,5025 6877,6436 5465,6436 "/>
   </g>
   <g>
    <g>
     <path class="fil1 str0" d="M5787 5504c33,191 188,400 388,437l0 -437"/>
    </g>
    <g>
     <path class="fil1 str0" d="M6551 5944c-107,-185 -231,-157 -375,-200 109,-32 338,-120 380,-239"/>
    </g>
   </g>
  </g>
  <g>
   <path class="fil0" d="M8512 3504c-71,-17 -137,-57 -184,-116 -96,-123 -169,-327 -206,-490 -24,-106 -30,-154 -16,-173 26,4 56,7 90,6 15,0 29,-1 42,-2 -4,0 -9,-1 -13,-1 22,3 48,5 76,4 63,-2 118,-11 167,-24 48,-14 100,-35 156,-66 39,-22 68,-46 91,-65 11,25 23,63 38,117 14,50 27,105 37,162 -10,15 -20,31 -32,49 -109,173 -221,410 -248,602z"/>
   <g>
    <path class="fil1 str0" d="M8791 2853c-10,-57 -23,-112 -37,-162 -75,-267 -74,-142 -235,-51 -56,31 -108,52 -156,66 -48,13 -103,22 -167,24 -183,6 -241,-103 -180,168 37,163 110,367 206,490 53,68 130,109 212,122 18,3 37,4 55,4m-15 -571c55,68 183,35 182,-53m-457 131c55,68 183,35 182,-53m191 255c-27,-11 -55,-15 -81,-9 -48,13 -84,58 -98,109"/>
   </g>
   <g>
    <g>
     <path class="fil1 str1" d="M8796 3897l0 0 1 1 1 1 0 0c125,63 291,57 410,-29 142,-103 284,-296 374,-456 149,-266 52,-169 -146,-225 -68,-19 -126,-44 -175,-71 -49,-28 -99,-64 -150,-112 -149,-139 -110,-269 -273,-11 -99,156 -200,372 -221,543 -17,144 60,286 178,360z"/>
    </g>
    <g>
     <path class="fil1 str1" d="M9031 3374c32,-119 -80,-190 -186,-95"/>
    </g>
    <g>
     <path class="fil1 str1" d="M9147 3440c90,-86 209,-28 178,108"/>
    </g>
    <g>
     <path class="fil1 str1" d="M9101 3690c-56,52 -143,74 -204,42 -60,-34 -85,-118 -68,-191"/>
    </g>
   </g>
  </g>
  <g>
   <path class="fil0" d="M274 3933c-87,-23 -151,-103 -151,-197 0,-94 64,-174 151,-197 87,23 151,103 151,197 0,94 -64,174 -151,197zm1288 0c-87,-23 -151,-103 -151,-197 0,-94 64,-174 151,-197 87,23 151,103 151,197 0,94 -64,174 -151,197z"/>
   <g>
    <path class="fil1 str1" d="M188 3398c259,13 306,108 364,339l503 0 325 -519m-161 -688l215 890"/>
   </g>
   <g>
    <g>
     <path class="fil1 str0" d="M1510 3533c113,0 204,91 204,204 0,113 -91,204 -204,204 -113,0 -204,-91 -204,-204 0,-113 91,-204 204,-204zm-1288 0c113,0 204,91 204,204 0,113 -91,204 -204,204 -113,0 -204,-91 -204,-204 0,-113 91,-204 204,-204z"/>
    </g>
    <g>
     <path class="fil1 str0" d="M234 3767l65 0m651 -1237l171 0m338 1147l22 91"/>
    </g>
   </g>
  </g>
 </g>
</svg>
